<?xml version="1.0" encoding="UTF-8"?>
<svg xmlns="http://www.w3.org/2000/svg" viewBox="0 0 64 64" width="64" height="64">
  <defs>
    <style>
      .logo-fill {
        fill: #009789;
        stroke-width: 0;
      }
    </style>
  </defs>
  <g transform="scale(0.128)">
    <path class="logo-fill" d="M250.2 179.29c-41.04 0-68.68 29.26-68.68 69.9s30.48 71.52 70.71 71.52c13.41 0 53.24-11.38 54.05-28.85.41-8.13-12.6-6.5-17.88-6.5-9.94 0-15.57 8.37-27.66 11.46 2.83-3.67 4.54-8.26 4.54-13.25 0-12-9.73-21.73-21.73-21.73s-21.73 9.73-21.73 21.73c0 .84.06 1.66.15 2.48-8.41-8.54-13.19-20.89-13.62-34.42h90.62c10.97 0 19.51-8.13 19.51-19.1 0-31.29-32.1-53.23-68.27-53.23zm34.14 57.3h-75.18c2.84-21.13 22.75-35.36 43.07-35.36 13 0 39.82 10.97 39.82 26.82 0 4.06-3.66 8.53-7.72 8.53z"/>
  </g>
</svg>