<?xml version="1.0" encoding="UTF-8"?>
<svg id="Layer_1" data-name="Layer 1" xmlns="http://www.w3.org/2000/svg" viewBox="0 0 500 500">
  <defs>
    <style>
      .cls-1 {
        fill: #009789;
        stroke-width: 0px;
      }
    </style>
  </defs>
  <path class="cls-1" d="M250.51,70.45c-104.22,0-174.39,74.3-174.39,177.49s77.4,181.61,179.55,181.61c34.05,0,135.18-28.89,137.25-73.27,1.03-20.64-31.99-16.51-45.41-16.51-25.25,0-39.53,21.26-70.24,29.11,7.19-9.32,11.52-20.97,11.52-33.65,0-30.47-24.7-55.18-55.17-55.18s-55.17,24.7-55.17,55.18c0,2.13.15,4.22.38,6.29-21.36-21.69-33.49-53.05-34.6-87.39h230.12c27.86,0,49.54-20.64,49.54-48.5,0-79.46-81.53-135.18-173.37-135.18ZM337.2,215.95h-190.91c7.22-53.66,57.78-89.78,109.38-89.78,33.02,0,101.13,27.86,101.13,68.11,0,10.32-9.28,21.67-19.6,21.67Z"/>
</svg>