<?xml version="1.0" encoding="UTF-8"?>
<svg id="Layer_1" data-name="Layer 1" xmlns="http://www.w3.org/2000/svg" viewBox="50 200 400 100">
  <defs>
    <style>
      .cls-1 {
        fill: #009789;
        stroke-width: 0px;
      }
    </style>
  </defs>
  <path class="cls-1" d="M94.87,219.08h15.96c2.46,0,4.3-2,4.3-4.45s-1.84-4.45-4.3-4.45h-25.63c-2.46,0-4.6,2-4.6,4.6v51.57c0,2.46,2.15,4.6,4.6,4.6h25.63c2.46,0,4.3-2,4.3-4.45s-1.84-4.6-4.3-4.6h-15.96c-1.69,0-3.07-1.38-3.07-3.22v-13.66h13.97c2.46,0,4.3-2,4.3-4.6,0-2.3-1.84-4.45-4.3-4.45h-13.97v-13.66c0-1.69,1.38-3.22,3.07-3.22Z"/>
  <path class="cls-1" d="M110.83,280.92h-38.06c-2.61,0-4.6-2.15-4.6-4.6v-60.62c0-3.22-2.46-5.68-5.22-5.68-.77,0-1.53.15-2.3.61-2,.77-3.53,2.76-3.53,5.07v70.6c0,1.84,1.53,3.38,3.53,3.38h50.19c2.46,0,4.3-2,4.3-4.3,0-2.46-1.84-4.45-4.3-4.45Z"/>
  <path class="cls-1" d="M159.79,249c7.21-7.06,6.45-10.74,6.45-20.72,0-11.36-11.66-18.11-21.95-18.11h-10.74c-5.37,0-9.82,4.3-9.82,9.82v59.85c0,9.67,8.44,10.13,15.65,10.13,15.5,0,29.47-2.92,29.47-21.64,0-10.13-.92-13.2-9.05-19.34ZM134.92,222.3c0-3.07,3.53-3.22,5.99-3.22,8.75,0,14.27,1.84,14.27,11.82v5.68c.15,5.22-4.6,9.05-10.9,9.05h-6.14c-1.69,0-3.22-1.54-3.22-3.22v-20.11ZM142.14,281.08c-3.22,0-7.21-.31-7.21-4.3v-18.26c0-3.99,3.84-4.3,7.06-4.3,8.44,0,15.96,1.07,15.96,11.51,0,12.89-3.38,15.35-15.81,15.35Z"/>
  <path class="cls-1" d="M201.53,210.17c-2.76,0-5.06,1.69-5.99,4.3-2.3,6.14-22.41,67.83-22.41,69.98,0,3.07,2.61,5.37,5.68,5.37,2.3,0,4.3-1.84,5.22-4.3l3.53-11.36h27.78l3.68,11.36c.92,2.3,2.92,4.14,5.06,4.14,3.07,0,5.52-2.46,5.52-5.37,0-2.3-19.95-63.23-22.1-69.68-.92-2.61-3.22-4.45-5.99-4.45ZM190.48,264.81l10.9-33.61,10.9,33.61h-21.79Z"/>
  <path class="cls-1" d="M244.5,229.82c0-6.91,5.07-10.59,11.66-10.59,13.66,0,9.21,12.58,16.73,12.58,2.92,0,5.53-2.3,5.53-5.37,0-9.82-13.51-16.27-21.95-16.27-12.58,0-22.87,7.37-22.87,20.41,0,6.6,2.3,11.2,6.29,14.89,10.74,10.28,27.78,8.44,27.78,25.94,0,5.83-6.29,9.52-11.51,9.52-13.66,0-9.05-12.89-16.88-12.89-3.07,0-5.53,2.46-5.53,5.52.92,10.13,13.2,16.27,22.25,16.27,13.35,0,22.71-7.83,22.71-21.49,0-23.94-34.22-17.96-34.22-38.52Z"/>
  <path class="cls-1" d="M321.87,210.17c-22.96,0-38.42,16.37-38.42,39.11s17.05,40.01,39.56,40.01c7.5,0,29.79-6.37,30.24-16.14.23-4.55-7.05-3.64-10-3.64-5.56,0-8.71,4.68-15.48,6.41,1.59-2.05,2.54-4.62,2.54-7.41,0-6.71-5.44-12.16-12.16-12.16s-12.16,5.44-12.16,12.16c0,.47.03.93.08,1.39-4.71-4.78-7.38-11.69-7.62-19.26h50.7c6.14,0,10.91-4.55,10.91-10.69,0-17.51-17.96-29.78-38.2-29.78ZM340.97,242.23h-42.06c1.59-11.82,12.73-19.78,24.1-19.78,7.28,0,22.28,6.14,22.28,15.01,0,2.27-2.05,4.77-4.32,4.77Z"/>
  <path class="cls-1" d="M442.89,239.96c0-17.51-17.96-29.78-38.2-29.78-22.96,0-38.42,16.37-38.42,39.11s17.05,40.01,39.56,40.01c7.5,0,29.79-6.37,30.24-16.14.23-4.55-7.05-3.64-10-3.64-5.56,0-8.71,4.68-15.48,6.41,1.59-2.05,2.54-4.62,2.54-7.41,0-6.71-5.44-12.16-12.16-12.16s-12.16,5.44-12.16,12.16c0,.47.03.93.08,1.39-4.71-4.78-7.38-11.69-7.62-19.26h50.7c6.14,0,10.91-4.55,10.91-10.69ZM423.79,242.23h-42.06c1.59-11.82,12.73-19.78,24.1-19.78,7.28,0,22.28,6.14,22.28,15.01,0,2.27-2.05,4.77-4.32,4.77Z"/>
</svg>